<svg xmlns="http://www.w3.org/2000/svg" version="1.1" xmlns:xlink="http://www.w3.org/1999/xlink" xmlns:svgjs="http://svgjs.dev/svgjs" width="32" height="32"><svg width="32" height="32" viewBox="0 0 153 153" fill="none" xmlns="http://www.w3.org/2000/svg">
  <circle cx="76.5" cy="76.5" r="76.5" fill="black"></circle>
  <circle cx="76.5" cy="76.5" r="68.5" fill="white"></circle>
  <rect x="74" y="13" width="5" height="15" rx="2" fill="black"></rect>
  <rect x="119.596" y="28.3689" width="5.12295" height="15.3688" rx="2" transform="rotate(47.3805 119.596 28.3689)" fill="black"></rect>
  <rect x="39.6783" y="108.287" width="5.12295" height="15.3688" rx="2" transform="rotate(47.3805 39.6783 108.287)" fill="black"></rect>
  <rect x="122.99" y="118.819" width="5.12295" height="15.3688" rx="2" transform="rotate(133.26 122.99 118.819)" fill="black"></rect>
  <rect x="43.072" y="38.9012" width="5.12295" height="15.3688" rx="2" transform="rotate(133.26 43.072 38.9012)" fill="black"></rect>
  <rect x="74" y="123" width="5" height="15" rx="2" fill="black"></rect>
  <path d="M13 75C13 73.8954 13.8954 73 15 73H26C27.1046 73 28 73.8954 28 75V77C28 78.1046 27.1046 79 26 79H15C13.8954 79 13 78.1046 13 77V75Z" fill="black"></path>
  <path d="M123 75C123 73.8954 123.895 73 125 73H136C137.105 73 138 73.8954 138 75V77C138 78.1046 137.105 79 136 79H125C123.895 79 123 78.1046 123 77V75Z" fill="black"></path>
  <rect x="88.8585" y="39" width="5.61" height="43.3087" rx="2.805" transform="rotate(25.9915 88.8585 39)" fill="black"></rect>
  <rect x="102.026" y="87.4303" width="5.60586" height="32.9113" rx="2.80293" transform="rotate(116.074 102.026 87.4303)" fill="black"></rect>
</svg><style>@media (prefers-color-scheme: light) { :root { filter: none; } }
@media (prefers-color-scheme: dark) { :root { filter: none; } }
</style></svg>